<?xml version="1.0" encoding="UTF-8" standalone="no"?>
<!-- Creator: CorelDRAW -->

<svg
   xmlns:dc="http://purl.org/dc/elements/1.1/"
   xmlns:cc="http://creativecommons.org/ns#"
   xmlns:rdf="http://www.w3.org/1999/02/22-rdf-syntax-ns#"
   xmlns:svg="http://www.w3.org/2000/svg"
   xmlns="http://www.w3.org/2000/svg"
   xmlns:sodipodi="http://sodipodi.sourceforge.net/DTD/sodipodi-0.dtd"
   xmlns:inkscape="http://www.inkscape.org/namespaces/inkscape"
   xml:space="preserve"
   width="200"
   height="25"
   style="clip-rule:evenodd;fill-rule:evenodd;image-rendering:optimizeQuality;shape-rendering:geometricPrecision;text-rendering:geometricPrecision"
   viewBox="0 0 200 25"
   version="1.1"
   id="svg134"
   sodipodi:docname="logo-sm.svg"
   inkscape:version="0.92.4 (5da689c313, 2019-01-14)"><metadata
   id="metadata138"><rdf:RDF><cc:Work
       rdf:about=""><dc:format>image/svg+xml</dc:format><dc:type
         rdf:resource="http://purl.org/dc/dcmitype/StillImage" /><dc:title></dc:title></cc:Work></rdf:RDF></metadata><sodipodi:namedview
   pagecolor="#ffffff"
   bordercolor="#666666"
   borderopacity="1"
   objecttolerance="10"
   gridtolerance="10"
   guidetolerance="10"
   inkscape:pageopacity="0"
   inkscape:pageshadow="2"
   inkscape:window-width="1920"
   inkscape:window-height="1001"
   id="namedview136"
   showgrid="false"
   inkscape:zoom="1.4901099"
   inkscape:cx="482.26302"
   inkscape:cy="49.932876"
   inkscape:window-x="-9"
   inkscape:window-y="-9"
   inkscape:window-maximized="1"
   inkscape:current-layer="svg134" />
 <defs
   id="defs4">
  <style
   type="text/css"
   id="style2">
   <![CDATA[
    .fil0 {fill:gold}
   ]]>
  </style>
 </defs>
 <g
   id="Ebene_x0020_1"
   transform="matrix(0.22222258,0,0,0.22222258,-1.07717,-1.4453102)">
  <metadata
   id="CorelCorpID_0Corel-Layer" />
  <path
   class="fil0"
   d="m 134.505,97.6347 v -7.06772 c -1.70079,2.52047 -3.93662,4.50237 -6.70985,5.95749 -2.77323,1.45158 -5.69764,2.17914 -8.77678,2.17914 -3.13819,0 -5.95394,-0.696851 -8.44843,-2.08819 -2.49213,-1.39252 -4.29685,-3.34961 -5.41063,-5.86654 -1.11378,-2.51929 -1.67126,-5.99882 -1.67126,-10.4445 v -29.8677 h 12.3638 v 21.6886 c 0,6.63662 0.22795,10.7043 0.68032,12.2008 0.4559,1.49764 1.28268,2.68229 2.48622,3.5563 1.20118,0.875198 2.72717,1.31339 4.57559,1.31339 2.11181,0 4.00512,-0.585827 5.6752,-1.7563 1.67362,-1.17047 2.81457,-2.62205 3.43111,-4.35473 0.61535,-1.73268 0.9248,-5.97638 0.9248,-12.7347 v -19.9134 h 12.3626 v 47.2016 h -11.4827 v -0.0035 z"
   id="path7"
   inkscape:connector-curvature="0"
   style="fill:#ffd700" />
  <path
   class="fil0"
   d="M 170.669,97.6347 H 158.3064 V 50.4331 h 11.4827 v 6.71339 c 1.96536,-3.17008 3.73111,-5.25827 5.30079,-6.26693 1.56969,-1.00866 3.35197,-1.51181 5.34567,-1.51181 2.81575,0 5.52993,0.784253 8.13898,2.35512 l -3.82677,10.8886 c -2.0811,-1.36299 -4.01929,-2.04449 -5.80749,-2.04449 -1.73032,0 -3.19843,0.479528 -4.39843,1.44213 -1.20354,0.96378 -2.14843,2.70473 -2.83819,5.22166 -0.68858,2.51929 -1.03465,7.79174 -1.03465,15.8232 v 14.5784 0.0024 z"
   id="path9"
   inkscape:connector-curvature="0"
   style="fill:#ffd700" />
  <path
   class="fil0"
   d="m 190.994,73.3666 c 0,-4.14685 1.01221,-8.16379 3.03425,-12.0449 2.02559,-3.88347 4.89095,-6.84331 8.60079,-8.8878 3.70866,-2.04567 7.85198,-3.06851 12.4276,-3.06851 7.06654,0 12.8599,2.31851 17.3764,6.9567 4.51654,4.63583 6.77481,10.4965 6.77481,17.5784 0,7.14213 -2.28071,13.0595 -6.84213,17.7579 -4.56142,4.69607 -10.3016,7.04528 -17.2228,7.04528 -4.28268,0 -8.36576,-0.977954 -12.2528,-2.93504 -3.88701,-1.95473 -6.84213,-4.82363 -8.86418,-8.60198 -2.02559,-3.77717 -3.0378,-8.37639 -3.0378,-13.8 v 0 h 0.006 z m 12.6697,0.667323 c 0,4.68189 1.09961,8.26654 3.29882,10.7551 2.19921,2.48858 4.91339,3.73347 8.13898,3.73347 3.22559,0 5.93032,-1.24488 8.11654,-3.73347 2.18504,-2.48858 3.27638,-6.10394 3.27638,-10.8461 0,-4.62166 -1.09488,-8.17796 -3.27638,-10.6665 -2.18622,-2.48858 -4.89095,-3.73229 -8.11654,-3.73229 -3.22559,0 -5.93977,1.2437 -8.13898,3.73229 -2.19921,2.48858 -3.29882,6.07323 -3.29882,10.7551 v 0 z"
   id="path11"
   inkscape:connector-curvature="0"
   style="fill:#ffd700" />
  <path
   class="fil0"
   d="m 248.582,50.4331 h 11.5276 v 6.93426 c 1.49528,-2.37166 3.51733,-4.29449 6.07205,-5.77796 2.55,-1.48228 5.38229,-2.22166 8.48977,-2.22166 5.42481,0 10.0311,2.14843 13.8142,6.44646 3.78307,4.29449 5.6752,10.2803 5.6752,17.9563 0,7.88268 -1.9063,14.0067 -5.72008,18.3791 -3.81378,4.3689 -8.4319,6.5563 -13.8591,6.5563 -2.58189,0 -4.9193,-0.519685 -7.01694,-1.55669 -2.09764,-1.03701 -4.30276,-2.81457 -6.62008,-5.33504 v 23.7803 h -12.3626 v -65.1579 -0.0035 z m 12.2303,22.8 c 0,5.30434 1.04055,9.22442 3.12402,11.7555 2.0811,2.53347 4.62166,3.80079 7.61103,3.80079 2.87362,0 5.26418,-1.16221 7.17048,-3.48898 1.90748,-2.32677 2.86063,-6.14174 2.86063,-11.4449 0,-4.94882 -0.9815,-8.62205 -2.94685,-11.0221 -1.96654,-2.4 -4.39843,-3.59882 -7.30394,-3.59882 -3.02008,0 -5.52874,1.17874 -7.52363,3.53386 -1.9937,2.35394 -2.99173,5.84292 -2.99173,10.4681 v -0.0035 z"
   id="path13"
   inkscape:connector-curvature="0"
   style="fill:#ffd700" />
  <path
   class="fil0"
   d="m 313.253,64.8331 -11.2181,-2.04567 c 1.26024,-4.56142 3.43111,-7.93938 6.51024,-10.1327 3.08032,-2.19331 7.65591,-3.28937 13.7268,-3.28937 5.51575,0 9.62127,0.659056 12.3189,1.97717 2.69882,1.31811 4.59804,2.9941 5.69764,5.02205 1.09961,2.02914 1.65,5.75552 1.65,11.1791 l -0.13228,14.5784 c 0,4.14685 0.19724,7.20709 0.59409,9.17835 0.39685,1.9689 1.13622,4.08189 2.22166,6.3319 h -12.2303 c -0.32362,-0.829135 -0.72047,-2.05984 -1.18701,-3.68977 -0.20551,-0.741733 -0.35197,-1.23071 -0.43937,-1.46575 -2.11181,2.07284 -4.37008,3.62953 -6.77481,4.66654 -2.40473,1.03701 -4.97245,1.55669 -7.69961,1.55669 -4.80945,0 -8.60079,-1.31811 -11.3728,-3.95433 -2.77323,-2.63622 -4.15748,-5.97048 -4.15748,-9.99922 0,-2.66693 0.63071,-5.04449 1.89331,-7.13268 1.26024,-2.08819 3.02835,-3.68977 5.30079,-4.80119 2.27244,-1.11024 5.55237,-2.08229 9.83269,-2.91142 5.77914,-1.09725 9.78072,-2.1189 12.0106,-3.06851 v -1.2437 c 0,-2.4 -0.58701,-4.11024 -1.75984,-5.13308 -1.17284,-1.02284 -3.38977,-1.53425 -6.64371,-1.53425 -2.19921,0 -3.91418,0.437008 -5.14607,1.31221 -1.23189,0.875198 -2.22992,2.40945 -2.99173,4.59922 v 0 h -0.004 z m 16.5449,10.1327 c -1.58268,0.533859 -4.09134,1.17047 -7.52245,1.91221 -3.43111,0.741733 -5.6752,1.46575 -6.72993,2.17914 -1.61457,1.1563 -2.4189,2.62205 -2.4189,4.39961 0,1.74685 0.6437,3.25866 1.93465,4.53426 1.29095,1.27559 2.93386,1.91221 4.92756,1.91221 2.22992,0 4.35591,-0.741733 6.37796,-2.22166 1.49646,-1.12559 2.47795,-2.50276 2.94803,-4.13386 0.32244,-1.06536 0.48307,-3.09567 0.48307,-6.08977 v -2.48858 -0.0035 z"
   id="path15"
   inkscape:connector-curvature="0"
   style="fill:#ffd700" />
  <polygon
   class="fil0"
   points="352.764,67.7682 377.048,67.7682 377.048,80.256 352.764,80.256 "
   id="polygon17"
   style="fill:#ffd700" />
  <path
   class="fil0"
   d="m 425.001,64.3902 -12.189,2.22166 c -0.40984,-2.46024 -1.34173,-4.31221 -2.79213,-5.55709 -1.45158,-1.2437 -3.33544,-1.86614 -5.65276,-1.86614 -3.08032,0 -5.53465,1.07362 -7.3689,3.22087 -1.83307,2.14843 -2.74961,5.74134 -2.74961,10.7787 0,5.59843 0.93071,9.55631 2.79213,11.8654 1.86142,2.3126 4.36181,3.46536 7.50001,3.46536 2.34567,0 4.26733,-0.673229 5.7626,-2.02205 1.49646,-1.35 2.55118,-3.66733 3.16654,-6.9567 l 12.1441,2.08701 c -1.26024,5.63032 -3.6815,9.88347 -7.25906,12.7547 -3.57638,2.87481 -8.3752,4.31221 -14.387,4.31221 -6.83386,0 -12.2823,-2.17795 -16.3453,-6.53268 -4.06181,-4.35473 -6.09449,-10.3866 -6.09449,-18.0898 0,-7.79292 2.03858,-13.8602 6.11339,-18.2008 4.07835,-4.34055 9.59056,-6.51142 16.5425,-6.51142 5.68938,0 10.2142,1.23898 13.5721,3.70985 3.35788,2.47441 5.77087,6.24449 7.23662,11.3126 v 0 l 0.008,0.0083 z"
   id="path19"
   inkscape:connector-curvature="0"
   style="fill:#ffd700" />
  <path
   class="fil0"
   d="m 431.556,73.3666 c 0,-4.14685 1.01221,-8.16379 3.0378,-12.0449 2.02441,-3.88347 4.88977,-6.84331 8.59961,-8.8878 3.70985,-2.04567 7.85198,-3.06851 12.4276,-3.06851 7.06772,0 12.861,2.31851 17.3776,6.9567 4.51654,4.63583 6.77481,10.4965 6.77481,17.5784 0,7.14213 -2.28071,13.0595 -6.84213,17.7579 -4.56142,4.69607 -10.3016,7.04528 -17.2252,7.04528 -4.28386,0 -8.36694,-0.977954 -12.2539,-2.93504 -3.88583,-1.95473 -6.84213,-4.82363 -8.86418,-8.60198 -2.02441,-3.77717 -3.0378,-8.37639 -3.0378,-13.8 v 0 h 0.006 z m 12.6697,0.667323 c 0,4.68189 1.09961,8.26654 3.29882,10.7551 2.19921,2.48858 4.91339,3.73347 8.13898,3.73347 3.22559,0 5.9315,-1.24488 8.11654,-3.73347 2.18504,-2.48858 3.27874,-6.10394 3.27874,-10.8461 0,-4.62166 -1.0937,-8.17796 -3.27874,-10.6665 -2.18504,-2.48858 -4.89095,-3.73229 -8.11654,-3.73229 -3.22559,0 -5.93977,1.2437 -8.13898,3.73229 -2.19921,2.48858 -3.29882,6.07323 -3.29882,10.7551 v 0 z"
   id="path21"
   inkscape:connector-curvature="0"
   style="fill:#ffd700" />
  <path
   class="fil0"
   d="M 531.995,97.6347 H 519.6324 V 73.5461 c 0,-5.09646 -0.26457,-8.39174 -0.79252,-9.88938 -0.52913,-1.49646 -1.38662,-2.65866 -2.57362,-3.4878 -1.18701,-0.829135 -2.61851,-1.24488 -4.28859,-1.24488 -2.14016,0 -4.06063,0.594095 -5.7626,1.77874 -1.70197,1.18465 -2.8689,2.75551 -3.49843,4.71024 -0.62953,1.95354 -0.94843,5.57008 -0.94843,10.8461 v 21.3792 h -12.3626 v -47.2016 h 11.4827 v 6.93426 c 4.07835,-5.33504 9.21024,-7.99961 15.398,-7.99961 2.72717,0 5.2193,0.497245 7.47757,1.48819 2.25827,0.992127 3.96851,2.25827 5.12363,3.80079 1.15866,1.54016 1.96654,3.28937 2.4189,5.2441 0.45591,1.95473 0.68386,4.75512 0.68386,8.40001 v 29.3339 l 0.005,-0.0035 z"
   id="path23"
   inkscape:connector-curvature="0"
   style="fill:#ffd700" />
  <path
   class="fil0"
   d="M 587.077,97.6347 H 574.7144 V 73.5461 c 0,-5.09646 -0.26457,-8.39174 -0.79252,-9.88938 -0.52913,-1.49646 -1.38662,-2.65866 -2.57362,-3.4878 -1.18701,-0.829135 -2.61851,-1.24488 -4.28859,-1.24488 -2.14016,0 -4.06063,0.594095 -5.7626,1.77874 -1.70197,1.18465 -2.86536,2.75551 -3.49843,4.71024 -0.62953,1.95354 -0.94488,5.57008 -0.94488,10.8461 v 21.3792 h -12.3626 v -47.2016 h 11.4827 v 6.93426 c 4.07717,-5.33504 9.21024,-7.99961 15.3969,-7.99961 2.72835,0 5.2193,0.497245 7.47757,1.48819 2.25827,0.992127 3.96615,2.25827 5.12717,3.80079 1.15866,1.54016 1.96536,3.28937 2.4189,5.2441 0.4559,1.95473 0.68031,4.75512 0.68031,8.40001 v 29.3339 l 0.002,-0.0035 z"
   id="path25"
   inkscape:connector-curvature="0"
   style="fill:#ffd700" />
  <path
   class="fil0"
   d="m 626.715,82.6135 12.3177,2.08819 c -1.58386,4.56142 -4.08426,8.03623 -7.50119,10.4221 -3.41693,2.38701 -7.69135,3.57992 -12.8232,3.57992 -8.12481,0 -14.1378,-2.68229 -18.039,-8.04568 -3.07914,-4.29804 -4.62048,-9.71812 -4.62048,-16.2662 0,-7.82245 2.02559,-13.9476 6.07205,-18.3791 4.04646,-4.42914 9.16536,-6.64489 15.3555,-6.64489 6.95197,0 12.4358,2.31851 16.454,6.95788 4.01929,4.63583 5.93977,11.7402 5.7626,21.3106 h -30.9721 c 0.0874,3.70394 1.08543,6.58465 2.99292,8.6445 1.9063,2.05984 4.28268,3.0874 7.1256,3.0874 1.93583,0 3.56339,-0.533859 4.88268,-1.59921 1.31929,-1.06536 2.31732,-2.78386 2.99292,-5.15552 v 0 z m 0.70512,-12.6248 c -0.0874,-3.61536 -1.01221,-6.3626 -2.77323,-8.24292 -1.75984,-1.8815 -3.9,-2.82166 -6.42284,-2.82166 -2.69646,0 -4.92756,0.992127 -6.68741,2.97756 -1.76103,1.98543 -2.62441,4.68189 -2.59607,8.08701 h 18.4772 0.002 z"
   id="path27"
   inkscape:connector-curvature="0"
   style="fill:#ffd700" />
  <path
   class="fil0"
   d="m 690.553,64.3902 -12.1854,2.22166 c -0.41102,-2.46024 -1.34173,-4.31221 -2.79567,-5.55709 -1.45039,-1.2437 -3.33544,-1.86614 -5.65276,-1.86614 -3.07914,0 -5.53465,1.07362 -7.36772,3.22087 -1.83425,2.14843 -2.75079,5.74134 -2.75079,10.7787 0,5.59843 0.93071,9.55631 2.79213,11.8654 1.8626,2.3126 4.363,3.46536 7.50119,3.46536 2.34567,0 4.26615,-0.673229 5.7626,-2.02205 1.49528,-1.35 2.55,-3.66733 3.16654,-6.9567 l 12.1429,2.08701 c -1.2626,5.63032 -3.68032,9.88347 -7.25788,12.7547 -3.57756,2.87481 -8.37284,4.31221 -14.3882,4.31221 -6.83386,0 -12.2811,-2.17795 -16.3453,-6.53268 -4.06063,-4.35473 -6.09449,-10.3866 -6.09449,-18.0898 0,-7.79292 2.03977,-13.8602 6.11457,-18.2008 4.07717,-4.34055 9.58938,-6.51142 16.5414,-6.51142 5.68938,0 10.2154,1.23898 13.5732,3.70985 3.35788,2.47441 5.77087,6.24449 7.23544,11.3126 v 0 l 0.008,0.0083 z"
   id="path29"
   inkscape:connector-curvature="0"
   style="fill:#ffd700" />
  <path
   class="fil0"
   d="m 721.391,50.4331 v 9.9567 h -8.44843 v 19.0217 c 0,3.85276 0.0815,6.09686 0.24213,6.73347 0.16063,0.635434 0.52913,1.16102 1.09961,1.57559 0.57047,0.415748 1.26851,0.622441 2.08937,0.622441 1.14449,0 2.80158,-0.400394 4.97245,-1.19882 l 1.05473,9.68977 c -2.87481,1.24488 -6.13111,1.86614 -9.76772,1.86614 -2.22756,0 -4.2378,-0.377953 -6.02599,-1.13268 -1.78937,-0.755906 -3.10276,-1.73386 -3.9378,-2.93504 -0.83504,-1.19882 -1.41496,-2.82402 -1.7374,-4.86615 -0.26457,-1.45158 -0.39686,-4.38544 -0.39686,-8.8004 v -20.5784 h -5.6752 v -9.9567 h 5.6752 v -9.37678 l 12.4051,-7.28977 v 16.6665 h 8.44843 l 0.002,0.0024 z"
   id="path31"
   inkscape:connector-curvature="0"
   style="fill:#ffd700" />
  <path
   class="fil0"
   d="M 730.058,44.0339 V 32.4768 h 12.3638 v 11.5571 z m 0,53.6008 V 50.4331 h 12.3638 v 47.2016 z"
   id="path33"
   inkscape:connector-curvature="0"
   style="fill:#ffd700" />
  <path
   class="fil0"
   d="m 752.188,73.3666 c 0,-4.14685 1.01221,-8.16379 3.03425,-12.0449 2.02559,-3.88347 4.89095,-6.84331 8.60079,-8.8878 3.71221,-2.04567 7.85198,-3.06851 12.4276,-3.06851 7.07008,0 12.861,2.31851 17.3776,6.9567 4.51654,4.63583 6.77481,10.4965 6.77481,17.5784 0,7.14213 -2.28071,13.0595 -6.84331,17.7579 -4.56142,4.69607 -10.3004,7.04528 -17.2217,7.04528 -4.28386,0 -8.36694,-0.977954 -12.2539,-2.93504 -3.88583,-1.95473 -6.84213,-4.82363 -8.86418,-8.60198 -2.02205,-3.77717 -3.03425,-8.37639 -3.03425,-13.8 v 0 h 0.002 z m 12.6697,0.667323 c 0,4.68189 1.09961,8.26654 3.29882,10.7551 2.19921,2.48858 4.91339,3.73347 8.13898,3.73347 3.22559,0 5.9315,-1.24488 8.11654,-3.73347 2.18504,-2.48858 3.27638,-6.10394 3.27638,-10.8461 0,-4.62166 -1.09134,-8.17796 -3.27638,-10.6665 -2.18504,-2.48858 -4.89095,-3.73229 -8.11654,-3.73229 -3.22559,0 -5.93977,1.2437 -8.13898,3.73229 -2.19921,2.48858 -3.29882,6.07323 -3.29882,10.7551 v 0 z"
   id="path35"
   inkscape:connector-curvature="0"
   style="fill:#ffd700" />
  <path
   class="fil0"
   d="M 852.628,97.6347 H 840.2642 V 73.5461 c 0,-5.09646 -0.26457,-8.39174 -0.79252,-9.88938 -0.52913,-1.49646 -1.38662,-2.65866 -2.57362,-3.4878 -1.18701,-0.829135 -2.61851,-1.24488 -4.28859,-1.24488 -2.14016,0 -4.06063,0.594095 -5.7626,1.77874 -1.70079,1.18465 -2.86536,2.75551 -3.49843,4.71024 -0.62953,1.95354 -0.94488,5.57008 -0.94488,10.8461 v 21.3792 h -12.3626 v -47.2016 h 11.4827 v 6.93426 c 4.07717,-5.33504 9.21024,-7.99961 15.3969,-7.99961 2.72835,0 5.2193,0.497245 7.47757,1.48819 2.25827,0.992127 3.96615,2.25827 5.12481,3.80079 1.15866,1.54016 1.96536,3.28937 2.4189,5.2441 0.45472,1.95473 0.68268,4.75512 0.68268,8.40001 v 29.3339 l 0.004,-0.0035 z"
   id="path37"
   inkscape:connector-curvature="0"
   style="fill:#ffd700" />
  <path
   class="fil0"
   d="m 860.859,84.1678 12.4075,-1.91221 c 0.52913,2.42835 1.59803,4.27559 3.2126,5.53347 1.61339,1.25906 3.87166,1.88977 6.77481,1.88977 3.19725,0 5.60197,-0.594095 7.21536,-1.77874 1.08662,-0.829135 1.62874,-1.94055 1.62874,-3.33189 0,-0.949607 -0.29173,-1.73268 -0.87992,-2.35512 -0.61654,-0.594095 -1.9937,-1.14213 -4.13741,-1.64528 -9.97206,-2.22166 -16.291,-4.25197 -18.9603,-6.08977 -3.69567,-2.54882 -5.54292,-6.08859 -5.54292,-10.6217 0,-4.0878 1.59685,-7.52599 4.79528,-10.3122 3.19725,-2.78386 8.15198,-4.17874 14.8713,-4.17874 6.39449,0 11.1449,1.05118 14.2559,3.15591 3.10985,2.10473 5.25,5.21575 6.42284,9.33426 l -11.6599,2.17914 c -0.49725,-1.8378 -1.44567,-3.24331 -2.83819,-4.22126 -1.39134,-0.976772 -3.38032,-1.46575 -5.96103,-1.46575 -3.25748,0 -5.58898,0.46063 -6.99449,1.37835 -0.94016,0.649607 -1.40906,1.49646 -1.40906,2.53347 0,0.889371 0.40984,1.64528 1.23189,2.26654 1.11378,0.830316 4.963,2.00079 11.5476,3.51142 6.58347,1.51181 11.1815,3.36378 13.7906,5.55709 2.58189,2.22047 3.87284,5.31733 3.87284,9.2882 0,4.32638 -1.78819,8.04568 -5.36811,11.1555 -3.57756,3.11103 -8.87363,4.66772 -15.8811,4.66772 -6.36497,0 -11.4012,-1.30394 -15.1134,-3.91181 -3.70985,-2.60788 -6.13701,-6.14764 -7.2815,-10.6217 v 0 -0.0047 z"
   id="path39"
   inkscape:connector-curvature="0"
   style="fill:#ffd700" />
  <path
   class="fil0"
   d="m 625.139,111.461 2.48386,-0.38268 c 0.1063,0.48544 0.32008,0.85394 0.6437,1.10787 0.32362,0.25276 0.77599,0.37678 1.35591,0.37678 0.64016,0 1.12205,-0.1193 1.44449,-0.35434 0.21732,-0.16771 0.32717,-0.38976 0.32717,-0.66732 0,-0.19134 -0.0591,-0.34724 -0.17717,-0.47244 -0.12402,-0.11929 -0.39921,-0.22677 -0.82677,-0.32953 -1.99725,-0.44527 -3.26221,-0.85157 -3.79725,-1.2189 -0.73937,-0.51023 -1.11024,-1.21772 -1.11024,-2.12717 0,-0.8185 0.32008,-1.50827 0.95906,-2.06575 0.64015,-0.5563 1.63347,-0.8374 2.97756,-0.8374 1.28032,0 2.23347,0.21024 2.85473,0.63307 0.62126,0.42047 1.05118,1.04528 1.28504,1.86969 l -2.33386,0.43701 c -0.10158,-0.3685 -0.28937,-0.64961 -0.56812,-0.84567 -0.27874,-0.19606 -0.67795,-0.29291 -1.19528,-0.29291 -0.65315,0 -1.11969,0.0909 -1.40079,0.27519 -0.18779,0.1311 -0.2811,0.29882 -0.2811,0.50906 0,0.17835 0.0815,0.32953 0.24803,0.45354 0.22205,0.16536 0.99213,0.40158 2.31142,0.70276 1.31929,0.30354 2.23819,0.67323 2.76142,1.1126 0.51733,0.44646 0.77599,1.06536 0.77599,1.86142 0,0.86575 -0.36024,1.60984 -1.07362,2.23583 -0.71811,0.62126 -1.77756,0.93425 -3.18071,0.93425 -1.27441,0 -2.28425,-0.26102 -3.02599,-0.78425 -0.74292,-0.52205 -1.22953,-1.23307 -1.45984,-2.12717 v 0 l 0.002,-0.004 z"
   id="path41"
   inkscape:connector-curvature="0"
   style="fill:#ffd700" />
  <path
   class="fil0"
   d="m 635.483,109.299 c 0,-0.83268 0.20197,-1.63583 0.60709,-2.41181 0.40511,-0.77835 0.97913,-1.37244 1.72087,-1.7811 0.74291,-0.40866 1.57205,-0.61417 2.48977,-0.61417 1.41378,0 2.57599,0.46299 3.47835,1.39252 0.9059,0.92834 1.35591,2.10236 1.35591,3.51969 0,1.42914 -0.45591,2.61614 -1.37008,3.5563 -0.91418,0.94015 -2.06457,1.41142 -3.45118,1.41142 -0.85748,0 -1.67599,-0.19489 -2.45197,-0.58701 -0.77835,-0.39213 -1.3689,-0.96614 -1.77402,-1.72205 -0.40512,-0.75591 -0.60827,-1.67835 -0.60827,-2.76378 v 0 h 0.004 z m 2.53937,0.13347 c 0,0.93779 0.21968,1.65591 0.66024,2.15315 0.44173,0.49724 0.98504,0.74763 1.6311,0.74763 0.64724,0 1.18701,-0.25039 1.62638,-0.74763 0.43819,-0.49961 0.65551,-1.22126 0.65551,-2.17323 0,-0.92599 -0.21969,-1.63937 -0.65551,-2.13662 -0.43937,-0.49961 -0.97914,-0.74646 -1.62638,-0.74646 -0.64607,0 -1.18937,0.25039 -1.6311,0.74646 -0.44056,0.49724 -0.66024,1.21654 -0.66024,2.15433 v 0 0.002 z"
   id="path43"
   inkscape:connector-curvature="0"
   style="fill:#ffd700" />
  <polygon
   class="fil0"
   points="647.086,101.11 649.564,101.11 649.564,114.16 647.086,114.16 "
   id="polygon45"
   style="fill:#ffd700" />
  <path
   class="fil0"
   d="m 658.251,114.16 v -1.41496 c -0.34016,0.50551 -0.7878,0.90354 -1.3441,1.1941 -0.55394,0.28937 -1.14213,0.43347 -1.75748,0.43347 -0.62717,0 -1.19291,-0.13819 -1.6937,-0.41693 -0.49725,-0.27874 -0.85984,-0.67087 -1.08189,-1.17638 -0.22205,-0.50552 -0.33543,-1.20118 -0.33543,-2.09055 v -5.98229 h 2.47795 v 4.34292 c 0,1.32992 0.0449,2.14488 0.13464,2.4437 0.0933,0.29763 0.2563,0.53622 0.49843,0.7122 0.24212,0.17599 0.54567,0.26221 0.91653,0.26221 0.42166,0 0.80197,-0.11693 1.13622,-0.35315 0.33426,-0.23504 0.56575,-0.52559 0.68623,-0.87166 0.12401,-0.34606 0.18543,-1.19646 0.18543,-2.55118 v -3.98859 h 2.47441 v 9.45473 h -2.29961 l 0.002,0.002 z"
   id="path47"
   inkscape:connector-curvature="0"
   style="fill:#ffd700" />
  <path
   class="fil0"
   d="m 667.414,104.706 v 1.9937 h -1.6937 v 3.80906 c 0,0.77362 0.0177,1.22244 0.0484,1.35 0.0331,0.12756 0.10629,0.23268 0.2185,0.31536 0.11575,0.0827 0.25394,0.12519 0.41929,0.12519 0.2315,0 0.55984,-0.0803 0.99567,-0.24212 l 0.21142,1.94055 c -0.57638,0.25039 -1.22953,0.37441 -1.95709,0.37441 -0.44764,0 -0.85039,-0.0756 -1.20709,-0.22678 -0.35669,-0.15 -0.62126,-0.34606 -0.7878,-0.58818 -0.16535,-0.24095 -0.28346,-0.56457 -0.34842,-0.97442 -0.0532,-0.28937 -0.0791,-0.87756 -0.0791,-1.76339 v -4.12205 h -1.13622 v -1.99487 h 1.13622 v -1.87677 l 2.48386,-1.46102 v 3.3378 h 1.69252 l 0.004,0.004 z"
   id="path49"
   inkscape:connector-curvature="0"
   style="fill:#ffd700" />
  <path
   class="fil0"
   d="m 669.149,103.424 v -2.31496 h 2.47441 v 2.31496 z m 0,10.735 v -9.45355 h 2.47441 v 9.45355 z"
   id="path51"
   inkscape:connector-curvature="0"
   style="fill:#ffd700" />
  <path
   class="fil0"
   d="m 673.581,109.299 c 0,-0.83268 0.20315,-1.63583 0.60827,-2.41181 0.40512,-0.77835 0.97795,-1.37244 1.72087,-1.7811 0.74291,-0.40866 1.57205,-0.61417 2.48858,-0.61417 1.41496,0 2.57599,0.46299 3.48189,1.39252 0.9059,0.92834 1.35591,2.10236 1.35591,3.51969 0,1.42914 -0.45591,2.61614 -1.37008,3.5563 -0.91418,0.94015 -2.06457,1.41142 -3.45,1.41142 -0.85866,0 -1.67717,-0.19489 -2.45315,-0.58701 -0.77835,-0.39213 -1.3689,-0.96614 -1.77402,-1.72205 -0.40512,-0.75591 -0.60827,-1.67835 -0.60827,-2.76378 v 0 z m 2.54055,0.13347 c 0,0.93779 0.2185,1.65591 0.66024,2.15315 0.44173,0.49724 0.98386,0.74763 1.6311,0.74763 0.64724,0 1.18701,-0.25039 1.6252,-0.74763 0.43937,-0.49961 0.65551,-1.22126 0.65551,-2.17323 0,-0.92599 -0.21969,-1.63937 -0.65551,-2.13662 -0.43583,-0.49961 -0.97796,-0.74646 -1.6252,-0.74646 -0.64725,0 -1.18937,0.25039 -1.6311,0.74646 -0.44174,0.49724 -0.66024,1.21654 -0.66024,2.15433 v 0 0.002 z"
   id="path53"
   inkscape:connector-curvature="0"
   style="fill:#ffd700" />
  <path
   class="fil0"
   d="m 693.697,114.16 h -2.47441 v -4.82363 c 0,-1.01929 -0.0531,-1.68189 -0.15709,-1.97953 -0.10748,-0.30118 -0.27874,-0.5315 -0.51496,-0.69921 -0.23858,-0.16772 -0.52323,-0.2504 -0.86102,-0.2504 -0.42756,0 -0.8126,0.11929 -1.15276,0.35552 -0.34016,0.23858 -0.57402,0.55157 -0.7004,0.9437 -0.12637,0.39212 -0.18779,1.11614 -0.18779,2.16969 v 4.2815 h -2.47559 v -9.45473 h 2.30079 v 1.38898 c 0.81614,-1.06772 1.84488,-1.60158 3.08268,-1.60158 0.54567,0 1.04528,0.0992 1.49882,0.29882 0.45236,0.19842 0.79252,0.45118 1.02638,0.76063 0.23386,0.30708 0.39331,0.65905 0.48307,1.05118 0.0933,0.39212 0.13819,0.95197 0.13819,1.68189 v 5.87481 l -0.006,0.002 z"
   id="path55"
   inkscape:connector-curvature="0"
   style="fill:#ffd700" />
  <path
   class="fil0"
   d="m 695.346,111.461 2.48268,-0.38268 c 0.10748,0.48544 0.32126,0.85394 0.6437,1.10787 0.32362,0.25276 0.77717,0.37678 1.35591,0.37678 0.64134,0 1.12205,-0.1193 1.44567,-0.35434 0.21614,-0.16771 0.32599,-0.38976 0.32599,-0.66732 0,-0.19134 -0.0591,-0.34724 -0.17717,-0.47244 -0.12402,-0.11929 -0.39921,-0.22677 -0.82677,-0.32953 -1.99606,-0.44527 -3.26221,-0.85157 -3.79607,-1.2189 -0.74055,-0.51023 -1.11142,-1.21772 -1.11142,-2.12717 0,-0.8185 0.32126,-1.50827 0.95905,-2.06575 0.64134,-0.5563 1.63465,-0.8374 2.97874,-0.8374 1.27913,0 2.23229,0.21024 2.85473,0.63307 0.62126,0.42047 1.05118,1.04528 1.28504,1.86969 l -2.33504,0.43701 c -0.098,-0.3685 -0.28937,-0.64961 -0.56811,-0.84567 -0.27756,-0.19606 -0.67677,-0.29291 -1.19173,-0.29291 -0.65315,0 -1.11969,0.0909 -1.40079,0.27519 -0.18897,0.1311 -0.2811,0.29882 -0.2811,0.50906 0,0.17835 0.0815,0.32953 0.24685,0.45354 0.22559,0.16536 0.99331,0.40158 2.3126,0.70276 1.31811,0.30354 2.23819,0.67323 2.76142,1.1126 0.51732,0.44646 0.77599,1.06536 0.77599,1.86142 0,0.86575 -0.3567,1.60984 -1.07362,2.23583 -0.71812,0.62126 -1.77756,0.93425 -3.18071,0.93425 -1.27441,0 -2.28425,-0.26102 -3.02717,-0.78425 -0.74174,-0.52205 -1.22835,-1.23307 -1.45866,-2.12717 v 0 -0.004 z"
   id="path57"
   inkscape:connector-curvature="0"
   style="fill:#ffd700" />
  <path
   class="fil0"
   d="m 710.183,104.706 h 1.37599 v -0.71339 c 0,-0.79488 0.0839,-1.38898 0.25039,-1.7811 0.16536,-0.39212 0.47481,-0.70984 0.92481,-0.95669 0.45,-0.24803 1.01811,-0.36968 1.70433,-0.36968 0.7063,0 1.39488,0.10748 2.06929,0.32126 l -0.33425,1.7433 c -0.39331,-0.0957 -0.77363,-0.14173 -1.13622,-0.14173 -0.3567,0 -0.61536,0.085 -0.77008,0.25276 -0.15473,0.17008 -0.23386,0.49488 -0.23386,0.97441 v 0.66732 h 1.85079 v 1.96654 h -1.85079 v 7.48465 h -2.47441 V 106.669 H 710.183 v -1.96654 0.004 z"
   id="path59"
   inkscape:connector-curvature="0"
   style="fill:#ffd700" />
  <path
   class="fil0"
   d="m 716.72,109.299 c 0,-0.83268 0.20197,-1.63583 0.60709,-2.41181 0.40512,-0.77835 0.97913,-1.37244 1.72205,-1.7811 0.74173,-0.40866 1.57205,-0.61417 2.48858,-0.61417 1.41378,0 2.57599,0.46299 3.47835,1.39252 0.9059,0.92834 1.35827,2.10236 1.35827,3.51969 0,1.42914 -0.45473,2.61614 -1.3689,3.5563 -0.91418,0.94015 -2.06457,1.41142 -3.45118,1.41142 -0.85748,0 -1.67599,-0.19489 -2.45551,-0.58701 -0.77835,-0.39213 -1.3689,-0.96614 -1.77402,-1.72205 -0.40512,-0.75591 -0.60709,-1.67835 -0.60709,-2.76378 v 0 h 0.002 z m 2.53937,0.13347 c 0,0.93779 0.21969,1.65591 0.66142,2.15315 0.44055,0.49724 0.98386,0.74763 1.6311,0.74763 0.64606,0 1.18583,-0.25039 1.6252,-0.74763 0.43819,-0.49961 0.65551,-1.22126 0.65551,-2.17323 0,-0.92599 -0.21969,-1.63937 -0.65551,-2.13662 -0.43937,-0.49961 -0.97914,-0.74646 -1.6252,-0.74646 -0.64725,0 -1.19055,0.25039 -1.6311,0.74646 -0.43937,0.49724 -0.66142,1.21654 -0.66142,2.15433 v 0 0.002 z"
   id="path61"
   inkscape:connector-curvature="0"
   style="fill:#ffd700" />
  <path
   class="fil0"
   d="m 730.694,114.16 h -2.47559 v -9.45355 h 2.30079 v 1.34291 c 0.39331,-0.63307 0.74764,-1.05354 1.06063,-1.25551 0.31417,-0.20079 0.67205,-0.30118 1.07126,-0.30118 0.56457,0 1.10787,0.15709 1.6311,0.47244 l -0.76536,2.1815 c -0.41574,-0.27284 -0.80433,-0.40984 -1.16457,-0.40984 -0.34488,0 -0.64015,0.0968 -0.87992,0.29055 -0.24212,0.19252 -0.42992,0.54212 -0.56811,1.04528 -0.13701,0.50551 -0.20787,1.55906 -0.20787,3.17008 v 2.92087 l -0.002,-0.004 z"
   id="path63"
   inkscape:connector-curvature="0"
   style="fill:#ffd700" />
  <path
   class="fil0"
   d="m 740.236,114.16 v -13.05 h 2.47441 v 4.70079 c 0.76181,-0.87756 1.66772,-1.31811 2.71418,-1.31811 1.13858,0 2.0811,0.41811 2.82874,1.25079 0.74528,0.8315 1.11969,2.03032 1.11969,3.59055 0,1.61339 -0.38031,2.85709 -1.14213,3.72992 -0.75945,0.87165 -1.68425,1.30866 -2.76969,1.30866 -0.53504,0 -1.06299,-0.13347 -1.58032,-0.40276 -0.52087,-0.27047 -0.9685,-0.67086 -1.34528,-1.19646 v 1.39016 h -2.29961 v -0.004 z m 2.45788,-4.93111 c 0,0.98032 0.15118,1.70079 0.45827,2.17323 0.42992,0.66496 0.99803,0.99685 1.71024,0.99685 0.54449,0 1.01221,-0.23622 1.39725,-0.70748 0.38504,-0.47126 0.57638,-1.21536 0.57638,-2.22992 0,-1.07953 -0.19371,-1.85788 -0.58229,-2.3374 -0.3874,-0.47835 -0.88228,-0.71693 -1.49055,-0.71693 -0.59291,0 -1.08543,0.23386 -1.47874,0.69921 -0.39449,0.46654 -0.59055,1.17284 -0.59055,2.12244 v 0 z"
   id="path65"
   inkscape:connector-curvature="0"
   style="fill:#ffd700" />
  <path
   class="fil0"
   d="m 757.531,114.16 v -1.41496 c -0.34016,0.50551 -0.79016,0.90354 -1.3441,1.1941 -0.55394,0.28937 -1.14213,0.43347 -1.75748,0.43347 -0.62953,0 -1.19291,-0.13819 -1.69252,-0.41693 -0.49843,-0.27874 -0.86102,-0.67087 -1.08307,-1.17638 -0.22205,-0.50552 -0.33425,-1.20118 -0.33425,-2.09055 v -5.98229 h 2.47441 v 4.34292 c 0,1.32992 0.0449,2.14488 0.13464,2.4437 0.0933,0.29763 0.2563,0.53622 0.49843,0.7122 0.24094,0.17599 0.54567,0.26221 0.91654,0.26221 0.42165,0 0.80078,-0.11693 1.13622,-0.35315 0.33425,-0.23504 0.5622,-0.52559 0.68622,-0.87166 0.12401,-0.34606 0.18543,-1.19646 0.18543,-2.55118 v -3.98859 h 2.47441 v 9.45473 h -2.29961 l 0.005,0.002 z"
   id="path67"
   inkscape:connector-curvature="0"
   style="fill:#ffd700" />
  <path
   class="fil0"
   d="m 761.534,111.461 2.48268,-0.38268 c 0.10748,0.48544 0.32126,0.85394 0.6437,1.10787 0.32362,0.25276 0.77717,0.37678 1.35827,0.37678 0.64134,0 1.12323,-0.1193 1.44567,-0.35434 0.21732,-0.16771 0.32717,-0.38976 0.32717,-0.66732 0,-0.19134 -0.0591,-0.34724 -0.17717,-0.47244 -0.12402,-0.11929 -0.40039,-0.22677 -0.82677,-0.32953 -1.99725,-0.44527 -3.26339,-0.85157 -3.79725,-1.2189 -0.73937,-0.51023 -1.11024,-1.21772 -1.11024,-2.12717 0,-0.8185 0.32008,-1.50827 0.95787,-2.06575 0.64134,-0.5563 1.63465,-0.8374 2.97874,-0.8374 1.28268,0 2.23347,0.21024 2.85473,0.63307 0.62126,0.42047 1.05118,1.04528 1.28504,1.86969 l -2.33386,0.43701 c -0.0992,-0.3685 -0.29055,-0.64961 -0.56811,-0.84567 -0.27874,-0.19606 -0.67795,-0.29291 -1.19291,-0.29291 -0.65197,0 -1.11969,0.0909 -1.40079,0.27519 -0.18779,0.1311 -0.2811,0.29882 -0.2811,0.50906 0,0.17835 0.0815,0.32953 0.24803,0.45354 0.22441,0.16536 0.99567,0.40158 2.31142,0.70276 1.31929,0.30354 2.23819,0.67323 2.76142,1.1126 0.51732,0.44646 0.77599,1.06536 0.77599,1.86142 0,0.86575 -0.3567,1.60984 -1.07362,2.23583 -0.71693,0.62126 -1.77756,0.93425 -3.18071,0.93425 -1.27441,0 -2.28425,-0.26102 -3.02599,-0.78425 -0.74292,-0.52205 -1.22953,-1.23307 -1.45984,-2.12717 v 0 l -0.002,-0.004 z"
   id="path69"
   inkscape:connector-curvature="0"
   style="fill:#ffd700" />
  <path
   class="fil0"
   d="m 772.449,103.424 v -2.31496 h 2.47677 v 2.31496 z m 0,10.735 v -9.45355 h 2.47677 v 9.45355 z"
   id="path71"
   inkscape:connector-curvature="0"
   style="fill:#ffd700" />
  <path
   class="fil0"
   d="m 785.968,114.16 h -2.47795 v -4.82363 c 0,-1.01929 -0.0531,-1.68189 -0.16063,-1.97953 -0.1063,-0.30118 -0.27874,-0.5315 -0.51496,-0.69921 -0.23858,-0.16772 -0.52323,-0.2504 -0.85748,-0.2504 -0.42756,0 -0.8126,0.11929 -1.15276,0.35552 -0.34016,0.23858 -0.57402,0.55157 -0.7004,0.9437 -0.12637,0.39212 -0.18897,1.11614 -0.18897,2.16969 v 4.2815 h -2.47441 v -9.45473 h 2.30079 v 1.38898 c 0.81496,-1.06772 1.84488,-1.60158 3.08504,-1.60158 0.54567,0 1.04646,0.0992 1.49882,0.29882 0.45236,0.19842 0.79252,0.45118 1.02638,0.76063 0.23386,0.30708 0.3933,0.65905 0.48425,1.05118 0.0898,0.39212 0.13701,0.95197 0.13701,1.68189 v 5.87481 l -0.005,0.002 z"
   id="path73"
   inkscape:connector-curvature="0"
   style="fill:#ffd700" />
  <path
   class="fil0"
   d="m 793.903,111.151 2.46614,0.41811 c -0.31772,0.91417 -0.8185,1.60984 -1.50118,2.08701 -0.68386,0.47717 -1.54134,0.71575 -2.56772,0.71575 -1.62638,0 -2.83229,-0.53622 -3.61418,-1.60984 -0.61536,-0.86102 -0.9248,-1.94646 -0.9248,-3.25866 0,-1.56496 0.40511,-2.79213 1.21417,-3.6815 0.81023,-0.88583 1.83662,-1.32992 3.07441,-1.32992 1.39134,0 2.49095,0.46299 3.29528,1.39252 0.80433,0.92835 1.19055,2.35158 1.15394,4.26969 h -6.20197 c 0.0177,0.74173 0.21732,1.31811 0.6,1.73032 0.38149,0.41102 0.85748,0.6189 1.42795,0.6189 0.38858,0 0.71457,-0.10748 0.97913,-0.32126 0.26457,-0.2126 0.46418,-0.5563 0.59882,-1.0311 v 0 z m 0.14055,-2.52874 c -0.0165,-0.72402 -0.20197,-1.27441 -0.5563,-1.65 -0.35197,-0.37795 -0.78189,-0.56575 -1.28622,-0.56575 -0.53976,0 -0.98622,0.19961 -1.33819,0.59764 -0.35197,0.39685 -0.52559,0.93661 -0.51968,1.61811 h 3.7004 z"
   id="path75"
   inkscape:connector-curvature="0"
   style="fill:#ffd700" />
  <path
   class="fil0"
   d="m 797.658,111.461 2.48622,-0.38268 c 0.10394,0.48544 0.32008,0.85394 0.64134,1.10787 0.32244,0.25276 0.77598,0.37678 1.35827,0.37678 0.64016,0 1.12205,-0.1193 1.44449,-0.35434 0.21732,-0.16771 0.32716,-0.38976 0.32716,-0.66732 0,-0.19134 -0.059,-0.34724 -0.17716,-0.47244 -0.12402,-0.11929 -0.39921,-0.22677 -0.83032,-0.32953 -1.99606,-0.44527 -3.26221,-0.85157 -3.79607,-1.2189 -0.73937,-0.51023 -1.11142,-1.21772 -1.11142,-2.12717 0,-0.8185 0.32126,-1.50827 0.95906,-2.06575 0.64134,-0.5563 1.63465,-0.8374 2.97874,-0.8374 1.27913,0 2.23229,0.21024 2.85473,0.63307 0.62362,0.42047 1.05118,1.04528 1.28504,1.86969 l -2.33504,0.43701 c -0.1004,-0.3685 -0.28937,-0.64961 -0.56811,-0.84567 -0.27756,-0.19606 -0.67677,-0.29291 -1.19528,-0.29291 -0.65197,0 -1.1185,0.0909 -1.39961,0.27519 -0.18898,0.1311 -0.28111,0.29882 -0.28111,0.50906 0,0.17835 0.0815,0.32953 0.24686,0.45354 0.22204,0.16536 0.99567,0.40158 2.31142,0.70276 1.31929,0.30354 2.23937,0.67323 2.7626,1.1126 0.51732,0.44646 0.77598,1.06536 0.77598,1.86142 0,0.86575 -0.35787,1.60984 -1.0748,2.23583 -0.71693,0.62126 -1.77756,0.93425 -3.18071,0.93425 -1.27323,0 -2.28307,-0.26102 -3.02599,-0.78425 -0.74173,-0.52205 -1.22835,-1.23307 -1.45984,-2.12717 v 0 l 0.004,-0.004 z"
   id="path77"
   inkscape:connector-curvature="0"
   style="fill:#ffd700" />
  <path
   class="fil0"
   d="m 807.701,111.461 2.48622,-0.38268 c 0.1063,0.48544 0.32008,0.85394 0.6437,1.10787 0.32362,0.25276 0.77599,0.37678 1.35473,0.37678 0.64134,0 1.12323,-0.1193 1.44567,-0.35434 0.21732,-0.16771 0.32717,-0.38976 0.32717,-0.66732 0,-0.19134 -0.0591,-0.34724 -0.17717,-0.47244 -0.12402,-0.11929 -0.40039,-0.22677 -0.83032,-0.32953 -1.99606,-0.44527 -3.26221,-0.85157 -3.79607,-1.2189 -0.74055,-0.51023 -1.11142,-1.21772 -1.11142,-2.12717 0,-0.8185 0.32126,-1.50827 0.96142,-2.06575 0.64134,-0.5563 1.63465,-0.8374 2.97874,-0.8374 1.27913,0 2.23347,0.21024 2.85473,0.63307 0.62363,0.42047 1.05118,1.04528 1.28504,1.86969 l -2.33386,0.43701 c -0.10157,-0.3685 -0.29055,-0.64961 -0.56811,-0.84567 -0.27874,-0.19606 -0.67795,-0.29291 -1.19291,-0.29291 -0.65197,0 -1.11969,0.0909 -1.40079,0.27519 -0.18779,0.1311 -0.2811,0.29882 -0.2811,0.50906 0,0.17835 0.0815,0.32953 0.24803,0.45354 0.22441,0.16536 0.99567,0.40158 2.31142,0.70276 1.31929,0.30354 2.23819,0.67323 2.76142,1.1126 0.51732,0.44646 0.77599,1.06536 0.77599,1.86142 0,0.86575 -0.3567,1.60984 -1.07362,2.23583 -0.71693,0.62126 -1.77756,0.93425 -3.18071,0.93425 -1.27441,0 -2.28425,-0.26102 -3.02599,-0.78425 -0.74292,-0.52205 -1.22953,-1.23307 -1.45984,-2.12717 v 0 l -0.002,-0.004 z"
   id="path79"
   inkscape:connector-curvature="0"
   style="fill:#ffd700" />
  <path
   class="fil0"
   d="m 823.624,103.424 v -2.31496 h 2.47559 v 2.31496 z m 0,10.735 v -9.45355 h 2.47559 v 9.45355 z"
   id="path81"
   inkscape:connector-curvature="0"
   style="fill:#ffd700" />
  <path
   class="fil0"
   d="m 837.137,114.16 h -2.47441 v -4.82363 c 0,-1.01929 -0.0532,-1.68189 -0.15709,-1.97953 -0.10748,-0.30118 -0.27874,-0.5315 -0.51496,-0.69921 -0.23858,-0.16772 -0.52323,-0.2504 -0.86102,-0.2504 -0.42638,0 -0.8126,0.11929 -1.15276,0.35552 -0.34016,0.23858 -0.57402,0.55157 -0.7004,0.9437 -0.12637,0.39212 -0.18779,1.11614 -0.18779,2.16969 v 4.2815 h -2.47559 v -9.45473 h 2.30079 v 1.38898 c 0.81614,-1.06772 1.84488,-1.60158 3.08268,-1.60158 0.54567,0 1.04646,0.0992 1.49882,0.29882 0.45236,0.19842 0.79252,0.45118 1.02638,0.76063 0.23386,0.30708 0.39331,0.65905 0.48425,1.05118 0.0921,0.39212 0.13701,0.95197 0.13701,1.68189 v 5.87481 l -0.006,0.002 z"
   id="path83"
   inkscape:connector-curvature="0"
   style="fill:#ffd700" />
  <polygon
   class="fil0"
   points="847.293,111.962 854.503,111.962 854.503,114.16 844.683,114.16 844.683,101.11 854.259,101.11 854.259,103.317 847.293,103.317 847.293,106.211 853.775,106.211 853.775,108.41 847.293,108.41 "
   id="polygon85"
   style="fill:#ffd700" />
  <path
   class="fil0"
   d="m 862.875,114.16 v -1.41496 c -0.34016,0.50551 -0.78661,0.90354 -1.3441,1.1941 -0.55394,0.28937 -1.14213,0.43347 -1.75748,0.43347 -0.62953,0 -1.19291,-0.13819 -1.6937,-0.41693 -0.49725,-0.27874 -0.85984,-0.67087 -1.08189,-1.17638 -0.22205,-0.50552 -0.33543,-1.20118 -0.33543,-2.09055 v -5.98229 h 2.47559 v 4.34292 c 0,1.32992 0.0449,2.14488 0.137,2.4437 0.0933,0.29763 0.2563,0.53622 0.49843,0.7122 0.24213,0.17599 0.54567,0.26221 0.91654,0.26221 0.42165,0 0.80197,-0.11693 1.13622,-0.35315 0.33425,-0.23504 0.56575,-0.52559 0.68622,-0.87166 0.12401,-0.34606 0.18543,-1.19646 0.18543,-2.55118 v -3.98859 h 2.47559 v 9.45473 h -2.30079 l 0.002,0.002 z"
   id="path87"
   inkscape:connector-curvature="0"
   style="fill:#ffd700" />
  <path
   class="fil0"
   d="m 870.122,114.16 h -2.47441 v -9.45355 h 2.30079 v 1.34291 c 0.39331,-0.63307 0.74528,-1.05354 1.05945,-1.25551 0.31535,-0.20079 0.67205,-0.30118 1.07244,-0.30118 0.56457,0 1.10787,0.15709 1.6311,0.47244 l -0.76536,2.1815 c -0.41574,-0.27284 -0.80433,-0.40984 -1.16457,-0.40984 -0.34606,0 -0.64133,0.0968 -0.87992,0.29055 -0.24212,0.19252 -0.42992,0.54212 -0.56811,1.04528 -0.13819,0.50551 -0.20787,1.55906 -0.20787,3.17008 v 2.92087 l -0.004,-0.004 z"
   id="path89"
   inkscape:connector-curvature="0"
   style="fill:#ffd700" />
  <path
   class="fil0"
   d="m 874.192,109.299 c 0,-0.83268 0.20197,-1.63583 0.60709,-2.41181 0.40511,-0.77835 0.97913,-1.37244 1.72087,-1.7811 0.74291,-0.40866 1.57205,-0.61417 2.48977,-0.61417 1.41378,0 2.57599,0.46299 3.47835,1.39252 0.9059,0.92834 1.35591,2.10236 1.35591,3.51969 0,1.42914 -0.45591,2.61614 -1.37008,3.5563 -0.91418,0.94015 -2.06457,1.41142 -3.45118,1.41142 -0.85748,0 -1.67599,-0.19489 -2.45197,-0.58701 -0.77835,-0.39213 -1.3689,-0.96614 -1.77402,-1.72205 -0.40512,-0.75591 -0.60827,-1.67835 -0.60827,-2.76378 v 0 h 0.004 z m 2.53583,0.13347 c 0,0.93779 0.21969,1.65591 0.66142,2.15315 0.44173,0.49724 0.98386,0.74763 1.6311,0.74763 0.64724,0 1.18701,-0.25039 1.6252,-0.74763 0.43937,-0.49961 0.65551,-1.22126 0.65551,-2.17323 0,-0.92599 -0.21969,-1.63937 -0.65551,-2.13662 -0.43583,-0.49961 -0.97796,-0.74646 -1.6252,-0.74646 -0.64725,0 -1.18937,0.25039 -1.6311,0.74646 -0.43819,0.49724 -0.66142,1.21654 -0.66142,2.15433 v 0 0.002 z"
   id="path91"
   inkscape:connector-curvature="0"
   style="fill:#ffd700" />
  <path
   class="fil0"
   d="m 885.726,104.706 h 2.30788 v 1.38898 c 0.30118,-0.4748 0.70394,-0.86102 1.21536,-1.1563 0.51142,-0.29528 1.07717,-0.44646 1.70197,-0.44646 1.08543,0 2.00788,0.42993 2.76733,1.28976 0.75945,0.86103 1.13622,2.05984 1.13622,3.59646 0,1.58032 -0.38268,2.80748 -1.14449,3.6815 -0.76536,0.8752 -1.6878,1.31221 -2.77677,1.31221 -0.51732,0 -0.98386,-0.10393 -1.40551,-0.31181 -0.41929,-0.20787 -0.86339,-0.5622 -1.3252,-1.06772 v 4.76103 h -2.47441 v -13.0512 l -0.002,0.004 z m 2.44961,4.56496 c 0,1.06181 0.20787,1.84606 0.62362,2.35512 0.41693,0.50787 0.92599,0.76063 1.5248,0.76063 0.57638,0 1.05473,-0.23268 1.43622,-0.69803 0.38268,-0.46654 0.57402,-1.23071 0.57402,-2.29252 0,-0.99213 -0.19724,-1.72795 -0.59055,-2.20748 -0.39331,-0.48071 -0.87992,-0.72165 -1.46221,-0.72165 -0.60473,0 -1.10787,0.23622 -1.50709,0.70748 -0.39922,0.47126 -0.59882,1.17047 -0.59882,2.09646 v 0 z"
   id="path93"
   inkscape:connector-curvature="0"
   style="fill:#ffd700" />
  <path
   class="fil0"
   d="m 902.245,111.151 2.46614,0.41811 c -0.31772,0.91417 -0.8185,1.60984 -1.50118,2.08701 -0.68386,0.47717 -1.54134,0.71575 -2.56772,0.71575 -1.62874,0 -2.83229,-0.53622 -3.61063,-1.60984 -0.61654,-0.86102 -0.92598,-1.94646 -0.92598,-3.25866 0,-1.56496 0.40511,-2.79213 1.21536,-3.6815 0.81023,-0.88583 1.83662,-1.32992 3.07323,-1.32992 1.39252,0 2.48977,0.46299 3.29646,1.39252 0.80433,0.92835 1.18937,2.35158 1.15275,4.26969 h -6.20078 c 0.0165,0.74173 0.21614,1.31811 0.59881,1.73032 0.38268,0.41102 0.85749,0.6189 1.42559,0.6189 0.38859,0 0.71457,-0.10748 0.97914,-0.32126 0.26457,-0.2126 0.46417,-0.5563 0.59882,-1.0311 v 0 z m 0.14055,-2.52874 c -0.0165,-0.72402 -0.20197,-1.27441 -0.55394,-1.65 -0.35197,-0.37795 -0.78189,-0.56575 -1.28504,-0.56575 -0.53976,0 -0.9874,0.19961 -1.33819,0.59764 -0.35197,0.39685 -0.52677,0.93661 -0.52086,1.61811 h 3.70158 -0.004 z"
   id="path95"
   inkscape:connector-curvature="0"
   style="fill:#ffd700" />
  <path
   class="fil0"
   d="m 74.8406,66.528 18.7075,-8.47678 c 1.24843,6.48071 0.498426,14.4969 -1.97126,19.0465 -3.08386,5.67638 -8.61497,10.9571 -14.4225,14.3587 -9.87048,5.7815 -19.6973,8.78741 -31.2709,4.69252 -6.78426,-2.94567 -11.0563,-6.65434 -15.6402,-14.3847 -5.47441,-9.23505 -6.79489,-18.1299 -4.93111,-26.1544 1.86496,-8.0256 8.36221,-16.474 15.9543,-20.7449 8.52875,-4.79646 18.5374,-7.77166 26.7118,-5.0693 8.17324,2.70118 16.2236,9.23859 22.7067,20.6599 l -40.8414,24.5894 c 2.7,4.31339 5.02323,5.43898 8.80394,6.55394 3.78071,1.11614 7.77166,0.305906 11.2606,-1.65827 2.37402,-1.33465 3.99685,-3.09095 4.87087,-5.26063 0.871654,-2.17087 0.894095,-4.88859 0.06142,-8.15198 v 0 z M 67.6465,50.3658 c -2.5937,-3.83386 -4.99725,-5.17323 -8.24883,-6.10985 -3.04607,-0.879922 -6.31064,-0.157087 -9.40631,1.58386 -3.30945,1.86142 -6.21497,4.47874 -6.98505,8.03505 -0.770079,3.55985 -1.08189,6.4441 1.33701,10.4492 l 23.3032,-13.9606 v 0.0024 z"
   id="path97"
   inkscape:connector-curvature="0"
   style="fill:#ffd700" />
  <polygon
   class="fil0"
   points="238.331,109.799 240.026,115.54 235.11,112.186 230.231,115.591 231.868,109.833 227.155,106.194 233.08,105.986 235.049,100.337 237.077,105.967 243.005,106.112 "
   id="polygon99"
   style="fill:#ffd700" />
  <polygon
   class="fil0"
   points="217.115,109.799 218.81,115.54 213.894,112.186 209.013,115.591 210.652,109.833 205.938,106.194 211.868,105.986 213.833,100.337 215.861,105.967 221.789,106.112 "
   id="polygon101"
   style="fill:#ffd700" />
  <polygon
   class="fil0"
   points="195.37,109.799 197.068,115.54 192.15,112.186 187.27,115.591 188.907,109.833 184.197,106.194 190.122,105.986 192.091,100.337 194.118,105.967 200.047,106.112 "
   id="polygon103"
   style="fill:#ffd700" />
  <polygon
   class="fil0"
   points="173.512,109.799 175.208,115.54 170.293,112.186 165.414,115.591 167.049,109.833 162.337,106.194 168.265,105.986 170.234,100.337 172.258,105.967 178.19,106.112 "
   id="polygon105"
   style="fill:#ffd700" />
  <polygon
   class="fil0"
   points="152.231,109.799 153.927,115.54 149.012,112.186 144.132,115.591 145.769,109.833 141.056,106.194 146.984,105.986 148.952,100.337 150.978,105.967 156.908,106.112 "
   id="polygon107"
   style="fill:#ffd700" />
  <polygon
   class="fil0"
   points="130.563,109.799 132.259,115.54 127.345,112.186 122.464,115.591 124.1,109.833 119.387,106.194 125.315,105.986 127.284,100.337 129.308,105.967 135.24,106.112 "
   id="polygon109"
   style="fill:#ffd700" />
  <polygon
   class="fil0"
   points="108.526,109.799 110.222,115.54 105.306,112.186 100.426,115.591 102.063,109.833 97.3501,106.194 103.278,105.986 105.247,100.337 107.271,105.967 113.199,106.112 "
   id="polygon111"
   style="fill:#ffd700" />
  <polygon
   class="fil0"
   points="87.228,109.799 88.9241,115.54 84.0083,112.186 79.128,115.591 80.7627,109.833 76.0524,106.194 81.9768,105.986 83.9457,100.337 85.9737,105.967 91.9017,106.112 "
   id="polygon113"
   style="fill:#ffd700" />
  <polygon
   class="fil0"
   points="62.8701,109.799 64.5662,115.54 59.6504,112.186 54.7678,115.591 56.4083,109.833 51.6945,106.194 57.6201,105.986 59.589,100.337 61.6158,105.967 67.5449,106.112 "
   id="polygon115"
   style="fill:#ffd700" />
  <polygon
   class="fil0"
   points="38.9859,105.777 40.6819,111.517 35.765,108.165 30.8859,111.569 32.5229,105.81 27.8091,102.171 33.7382,101.965 35.7036,96.3143 37.7315,101.945 43.6595,102.09 "
   id="polygon117"
   style="fill:#ffd700" />
  <polygon
   class="fil0"
   points="22.0559,88.1127 23.7508,93.854 18.8386,90.502 13.9559,93.9083 15.5929,88.1469 10.8827,84.5115 16.8071,84.3036 18.776,78.6509 20.8016,84.2835 26.7319,84.4288 "
   id="polygon119"
   style="fill:#ffd700" />
  <polygon
   class="fil0"
   points="16.0228,64.5438 17.7189,70.2851 12.8032,66.9319 7.92402,70.3359 9.55985,64.578 4.84725,60.9414 10.7752,60.7335 12.7441,55.0808 14.7685,60.7111 20.7,60.8564 "
   id="polygon121"
   style="fill:#ffd700" />
  <polygon
   class="fil0"
   points="22.2414,40.8485 23.9374,46.5898 19.0205,43.2378 14.1414,46.6418 15.7784,40.8827 11.0646,37.2473 16.9937,37.0394 18.9614,31.3866 20.987,37.017 26.915,37.1622 "
   id="polygon123"
   style="fill:#ffd700" />
  <polygon
   class="fil0"
   points="39.9083,23.4981 41.6044,29.2394 36.6874,25.8862 31.8083,29.2902 33.4453,23.5323 28.7315,19.8957 34.6607,19.6878 36.6284,14.0351 38.654,19.6689 44.5819,19.813 "
   id="polygon125"
   style="fill:#ffd700" />
  <polygon
   class="fil0"
   points="62.9918,17.2169 64.6902,22.9583 59.7745,19.6063 54.8918,23.0114 56.5288,17.2512 51.8185,13.6146 57.7441,13.4079 59.7119,7.75394 61.7375,13.3878 67.6678,13.5295 "
   id="polygon127"
   style="fill:#ffd700" />
  <polygon
   class="fil0"
   points="86.4544,23.7756 88.1505,29.5205 83.2371,26.165 78.3556,29.5713 79.9914,23.8099 75.2788,20.1744 81.2068,19.9666 83.1757,14.3162 85.2001,19.9465 91.1292,20.0917 "
   id="polygon129"
   style="fill:#ffd700" />
  <polygon
   class="fil0"
   points="102.167,41.0079 103.863,46.7493 98.9493,43.3937 94.0678,46.8 95.7048,41.0398 90.991,37.4032 96.919,37.1953 98.8879,31.5461 100.912,37.1764 106.844,37.3205 "
   id="polygon131"
   style="fill:#ffd700" />
 </g>
</svg>